Hanif_Deep_5_0_grf.mot
version=1
nRows=21
nColumns=19
inDegrees=yes
endheader
time	right_ground_force_vx	right_ground_force_vy	right_ground_force_vz	right_ground_force_px	right_ground_force_py	right_ground_force_pz	right_ground_torque_x	right_ground_torque_y	right_ground_torque_z	left_ground_force_vx	left_ground_force_vy	left_ground_force_vz	left_ground_force_px	left_ground_force_py	left_ground_force_pz	left_ground_torque_x	left_ground_torque_y	left_ground_torque_z
2.900000	1.016500	265.182000	59.651400	0.187732	0.000000	-1.443940	-16.450400	2.385560	-2.895570	1.583750	297.053000	-63.067300	0.182008	0.000000	-0.969323	19.680600	-5.168220	-4.510600
2.905000	1.087040	265.053000	59.570700	0.187909	0.000000	-1.444410	-16.317400	2.354260	-2.852530	1.586880	296.219000	-62.841600	0.181075	0.000000	-0.969549	19.692500	-5.111470	-4.796150
2.910000	0.692612	264.625000	59.367300	0.187956	0.000000	-1.444250	-16.335300	2.370030	-2.825330	0.834370	296.364000	-62.730500	0.181680	0.000000	-0.968999	19.548600	-5.167940	-4.590500
2.915000	0.588832	264.203000	59.427900	0.187899	0.000000	-1.444430	-16.264400	2.266100	-2.857190	1.130550	295.301000	-62.364400	0.181823	0.000000	-0.969619	19.657800	-5.099520	-4.546000
2.920000	0.576010	263.994000	59.451300	0.187853	0.000000	-1.444260	-16.295300	2.324420	-2.853820	0.327557	295.184000	-61.902900	0.181720	0.000000	-0.970173	19.824000	-5.146670	-4.558450
2.925000	0.214142	265.082000	59.256400	0.187740	0.000000	-1.444100	-16.408300	2.237340	-2.915060	-0.218490	295.086000	-61.750000	0.181748	0.000000	-0.969462	19.615000	-5.048610	-4.562400
2.930000	0.518392	265.292000	59.484500	0.188382	0.000000	-1.443460	-16.588300	2.237580	-2.742740	-0.036389	294.698000	-61.377900	0.181916	0.000000	-0.969308	19.541200	-5.096860	-4.498580
2.935000	0.026322	265.918000	59.120800	0.188501	0.000000	-1.443730	-16.558900	2.273500	-2.703930	0.641558	294.813000	-61.338200	0.182299	0.000000	-0.969857	19.701600	-5.090510	-4.394260
2.940000	0.530039	267.897000	59.500600	0.188553	0.000000	-1.443490	-16.743500	2.299320	-2.714500	0.441457	294.213000	-61.579100	0.182251	0.000000	-0.970112	19.739200	-5.127140	-4.383860
2.945000	0.850463	268.020000	59.421300	0.188386	0.000000	-1.443460	-16.756100	2.303810	-2.766740	0.106481	293.246000	-61.849200	0.182041	0.000000	-0.969295	19.439200	-4.986740	-4.450440
2.950000	-0.266344	270.693000	59.447600	0.189003	0.000000	-1.443760	-16.848400	2.198490	-2.634010	0.416679	293.621000	-61.549300	0.182123	0.000000	-0.969674	19.571300	-5.101360	-4.416090
2.955000	0.354577	271.396000	59.389600	0.189593	0.000000	-1.443840	-16.867200	2.161150	-2.491470	0.846773	293.667000	-61.540900	0.182743	0.000000	-0.968890	19.338300	-5.065120	-4.240670
2.960000	0.354949	271.009000	59.385800	0.189753	0.000000	-1.443090	-17.047800	2.143300	-2.445720	0.726278	293.457000	-61.585700	0.181740	0.000000	-0.969463	19.494300	-5.076190	-4.539200
2.965000	0.386195	271.577000	59.823500	0.190082	0.000000	-1.442550	-17.229300	2.135190	-2.359340	1.260140	293.620000	-61.666900	0.182735	0.000000	-0.969402	19.480300	-5.026250	-4.254910
2.970000	0.495402	273.182000	59.580600	0.190412	0.000000	-1.443070	-17.189100	2.070190	-2.299160	0.790508	291.776000	-61.476100	0.182264	0.000000	-0.970068	19.558200	-5.067470	-4.348180
2.975000	0.457600	274.493000	59.563100	0.190435	0.000000	-1.442990	-17.292600	2.175670	-2.283400	1.005120	291.304000	-61.377300	0.182375	0.000000	-0.969726	19.424300	-5.009080	-4.320950
2.980000	0.343169	271.725000	59.564500	0.191424	0.000000	-1.441550	-17.510200	2.016900	-2.005120	0.737729	291.704000	-60.915800	0.182313	0.000000	-0.970349	19.636200	-5.044940	-4.341280
2.985000	-0.158726	273.704000	59.206800	0.191271	0.000000	-1.442180	-17.469600	2.012340	-2.063520	-0.419872	290.748000	-60.913500	0.182130	0.000000	-0.970321	19.579200	-4.956960	-4.379230
2.990000	-0.696924	273.562000	58.712100	0.191650	0.000000	-1.442050	-17.497300	1.864300	-1.979910	-0.666595	290.674000	-60.893100	0.182733	0.000000	-0.969892	19.452700	-4.982010	-4.186440
2.995000	-0.683872	273.333000	58.844200	0.191357	0.000000	-1.441500	-17.633600	1.989700	-2.033920	-0.680718	289.863000	-60.400300	0.182167	0.000000	-0.969339	19.238500	-4.947990	-4.353000
3.000000	-1.111380	273.285000	58.447400	0.191125	0.000000	-1.441350	-17.673700	1.855230	-2.124160	-0.380645	289.301000	-60.623000	0.181665	0.000000	-0.969898	19.358800	-5.021650	-4.479520
